<?xml version="1.0" encoding="utf-8"?>
<!-- Generator: Adobe Illustrator 18.0.0, SVG Export Plug-In . SVG Version: 6.00 Build 0)  -->
<!DOCTYPE svg PUBLIC "-//W3C//DTD SVG 1.1//EN" "http://www.w3.org/Graphics/SVG/1.1/DTD/svg11.dtd">
<svg version="1.1" id="Foreground" xmlns="http://www.w3.org/2000/svg" xmlns:xlink="http://www.w3.org/1999/xlink" x="0px" y="0px"
	 viewBox="0 0 1406 383" enable-background="new 0 0 1406 383" xml:space="preserve">
<g id="Land">
	<linearGradient id="SVGID_1_" gradientUnits="userSpaceOnUse" x1="22" y1="321.4362" x2="1424" y2="321.4362">
		<stop  offset="0" style="stop-color:#242B0C"/>
		<stop  offset="0.508" style="stop-color:#344827"/>
		<stop  offset="1" style="stop-color:#3D3215"/>
	</linearGradient>
	<polygon fill="url(#SVGID_1_)" points="511.753,298.896 490.943,305.773 517.614,343.976 	"/>
	<linearGradient id="SVGID_2_" gradientUnits="userSpaceOnUse" x1="22" y1="361.9874" x2="1424" y2="361.9874">
		<stop  offset="0" style="stop-color:#242B0C"/>
		<stop  offset="0.508" style="stop-color:#344827"/>
		<stop  offset="1" style="stop-color:#3D3215"/>
	</linearGradient>
	<polygon fill="url(#SVGID_2_)" points="1056.361,363.184 1079.315,362.23 1056.427,360.791 	"/>
	<linearGradient id="SVGID_3_" gradientUnits="userSpaceOnUse" x1="22" y1="334.0909" x2="1424" y2="334.0909">
		<stop  offset="0" style="stop-color:#242B0C"/>
		<stop  offset="0.508" style="stop-color:#344827"/>
		<stop  offset="1" style="stop-color:#3D3215"/>
	</linearGradient>
	<path fill="url(#SVGID_3_)" d="M998.152,331.784l48.218,33.719l6.942-5.947L1033.5,341l60.657,20.615l163.343-6.781
		c-10.667-2.667-80.167-17.287-91.167-19.403s-36.833-5.222-36.833-5.222s30.667,10.979,32.833,12.229
		c2.167,1.25-66.667,1.323-73,0.406c-3.917-0.567-82.115-21.222-146.886-37.609c-17.268-4.369-31.239-2.514-42.285,0.904
		l117.976,54.265L998.152,331.784z"/>
	<linearGradient id="SVGID_4_" gradientUnits="userSpaceOnUse" x1="22" y1="340.0009" x2="1424" y2="340.0009">
		<stop  offset="0" style="stop-color:#242B0C"/>
		<stop  offset="0.508" style="stop-color:#344827"/>
		<stop  offset="1" style="stop-color:#3D3215"/>
	</linearGradient>
	<path fill="url(#SVGID_4_)" d="M1285.917,336.574c-3.352-1.227-21.818-1.227-21.818-1.227s34.598,8.41,36.513,9.248
		C1302.528,345.433,1287.713,337.231,1285.917,336.574z"/>
	<linearGradient id="SVGID_5_" gradientUnits="userSpaceOnUse" x1="22" y1="334.5" x2="1424" y2="334.5">
		<stop  offset="0" style="stop-color:#242B0C"/>
		<stop  offset="0.508" style="stop-color:#344827"/>
		<stop  offset="1" style="stop-color:#3D3215"/>
	</linearGradient>
	<path fill="url(#SVGID_5_)" d="M558.649,295c-0.048,0-0.103,0-0.149,0c-3.494,0-13.766,0.36-27.567,0.928L598.681,374L558.649,295z
		"/>
	<linearGradient id="SVGID_6_" gradientUnits="userSpaceOnUse" x1="22" y1="347.3308" x2="1424" y2="347.3308">
		<stop  offset="0" style="stop-color:#242B0C"/>
		<stop  offset="0.508" style="stop-color:#344827"/>
		<stop  offset="1" style="stop-color:#3D3215"/>
	</linearGradient>
	<path fill="url(#SVGID_6_)" d="M1415.492,354.424c0,0-4.489-1.816-7.49-2.553c-3.001-0.738-48.177-11.349-53.851-12.03
		c-5.675-0.681-23.549-1.759-23.549-1.759l31.721,18.499L1415.492,354.424z"/>
	<linearGradient id="SVGID_7_" gradientUnits="userSpaceOnUse" x1="22" y1="342.4166" x2="1424" y2="342.4166">
		<stop  offset="0" style="stop-color:#242B0C"/>
		<stop  offset="0.508" style="stop-color:#344827"/>
		<stop  offset="1" style="stop-color:#3D3215"/>
	</linearGradient>
	<path fill="url(#SVGID_7_)" d="M129.86,357.869l0.82,1.465h71.763l10.491-33.833L178,346.385v-17.718l-56.677,12.3
		c-0.27,0.054-0.544,0.114-0.823,0.178h0c-4.781,1.115-10.625,3.712-10.625,3.712l-1.274,5.224c0,0-6.752-2.93-7.007-2.93
		c-0.255,0-16.945,5.861-24.334,9.428L129.86,357.869z"/>
	<linearGradient id="SVGID_8_" gradientUnits="userSpaceOnUse" x1="22" y1="303.0763" x2="1424" y2="303.0763">
		<stop  offset="0" style="stop-color:#242B0C"/>
		<stop  offset="0.508" style="stop-color:#344827"/>
		<stop  offset="1" style="stop-color:#3D3215"/>
	</linearGradient>
	<path fill="url(#SVGID_8_)" d="M681.287,290.961c-12.51,1.425-27.039,3.443-30.5,3.928l23.27,20.302L681.287,290.961z"/>
	<linearGradient id="SVGID_9_" gradientUnits="userSpaceOnUse" x1="22" y1="348.5598" x2="1424" y2="348.5598">
		<stop  offset="0" style="stop-color:#242B0C"/>
		<stop  offset="0.508" style="stop-color:#344827"/>
		<stop  offset="1" style="stop-color:#3D3215"/>
	</linearGradient>
	<path fill="url(#SVGID_9_)" d="M-53.365,406.356l1471.157-9.945v-36.692l-290.292,8.406c0,0-29.791-1.536-71.14-4.907l-0.183,6.659
		l-30.749-3.786l-86.79-1.244l-101.373-60.446l-12.104-12.963c-11.658-0.24-23.872-0.467-35.926-0.674L927,358h-93.333L789,334.372
		V374l-84.939-32.631l17.606,15.361l-52.333,6.063l-43-38.708L614,357l-15.319,17L507,362.228l-0.621-0.521l-18.359,8.382
		l-53.767-27.443l32.51,1.899l16.82,20.212l20.821-4.707l-42.823-43.783l-5.59,2.4c-14.009,5-41.716,38.333-41.716,38.333
		L398,365.333L385,361c2.333-1.667,13-32.333,10.424-31.481S359.333,340,359.333,340L337,323.646l-43.25,3.604l3.259-11.18
		c-17.24,8.419-75.676,13.263-81.009,42.037c-0.078,0.423-0.235,0.831-0.449,1.227h18.908l27.376-32.903l-8.499,32.903h21.636
		l12.077-24.155l5.083-1.417l-3.89,25.571l53.699,0.12l14.58-14.532L357,360.833l21.835-1.5v10h-37.618L341,374.667l-23.86-5.333
		h-66.388l-1.076,4.167l-23.676-4l0.139-0.167h-53.608c-23.398,1.341-52.908,0.951-79.906,0H10.667v-7.5l-8.07-5.262
		c0,0,20.46-10.645,20.632-10.645c0.129,0-6.986,8.929-10.563,13.408h9.368c5.938-7.092,15.79-18.138,19.967-18.688
		c6.167-0.812,16.5-1.978,19.167-2.812c1.218-0.381,16.622-12.715,29.833-13.187L44,327l-70,27.618l-3.561-34.5
		c-2.096,0.054-4.002,0.098-5.689,0.133l-18.115,37.43V406.356z"/>
	<linearGradient id="SVGID_10_" gradientUnits="userSpaceOnUse" x1="22" y1="334.9642" x2="1424" y2="334.9642">
		<stop  offset="0" style="stop-color:#242B0C"/>
		<stop  offset="0.508" style="stop-color:#344827"/>
		<stop  offset="1" style="stop-color:#3D3215"/>
	</linearGradient>
	<path fill="url(#SVGID_10_)" d="M517.614,343.976l-26.671-38.203l-21.352,7.055l-8.01,3.439l42.823,43.783l-20.821,4.707
		l-16.82-20.212l-32.51-1.899l53.767,27.443l18.359-8.382l0.621,0.521L598.681,374l-67.748-78.072
		c-3.669,0.151-7.588,0.317-11.696,0.495l-7.484,2.473L517.614,343.976z"/>
	<linearGradient id="SVGID_11_" gradientUnits="userSpaceOnUse" x1="513.8184" y1="276.2209" x2="517.8184" y2="400.2209">
		<stop  offset="0" style="stop-color:#C9A73B"/>
		<stop  offset="1" style="stop-color:#694B28"/>
	</linearGradient>
	<path fill="url(#SVGID_11_)" d="M517.614,343.976l-26.671-38.203l-21.352,7.055l-8.01,3.439l42.823,43.783l-20.821,4.707
		l-16.82-20.212l-32.51-1.899l53.767,27.443l18.359-8.382l0.621,0.521L598.681,374l-67.748-78.072
		c-3.669,0.151-7.588,0.317-11.696,0.495l-7.484,2.473L517.614,343.976z"/>
	<linearGradient id="SVGID_12_" gradientUnits="userSpaceOnUse" x1="918.9562" y1="7.5532" x2="1136.4453" y2="151.546">
		<stop  offset="0" style="stop-color:#C9A73B"/>
		<stop  offset="1" style="stop-color:#694B28"/>
	</linearGradient>
	<path fill="url(#SVGID_12_)" d="M1426.812,359.458l0.476-8.186l-8.801-34.898c-0.232,0.006-0.456,0.012-0.695,0.019v43.326
		L1426.812,359.458z"/>
	<linearGradient id="SVGID_13_" gradientUnits="userSpaceOnUse" x1="22" y1="330.6578" x2="1424" y2="330.6578">
		<stop  offset="0" style="stop-color:#242B0C"/>
		<stop  offset="0.508" style="stop-color:#344827"/>
		<stop  offset="1" style="stop-color:#3D3215"/>
	</linearGradient>
	<path fill="url(#SVGID_13_)" d="M938.638,364.847l86.79,1.244l30.749,3.786l0.183-6.659c41.349,3.371,71.14,4.907,71.14,4.907
		l290.292-8.406v-43.326c-55.795,1.528-297.041,7.313-349.792-5.268c-59.75-14.25-147.5-15.625-175.75-17.625
		c-10.144-0.718-36.728-1.436-67.089-2.062l12.104,12.963L938.638,364.847z M1056.361,363.184l0.066-2.392l22.888,1.439
		L1056.361,363.184z M1354.15,339.84c5.674,0.681,50.85,11.292,53.851,12.03c3.001,0.738,7.49,2.553,7.49,2.553l-53.17,2.156
		l-31.721-18.499C1330.601,338.081,1348.476,339.16,1354.15,339.84z M1285.917,336.574c1.796,0.657,16.61,8.859,14.695,8.021
		c-1.915-0.838-36.513-9.248-36.513-9.248S1282.565,335.347,1285.917,336.574z M942.447,305.235
		c64.771,16.387,142.969,37.042,146.886,37.609c6.333,0.917,75.167,0.844,73-0.406c-2.167-1.25-32.833-12.229-32.833-12.229
		s25.833,3.106,36.833,5.222s80.5,16.737,91.167,19.403l-163.343,6.781L1033.5,341l19.812,18.557l-6.942,5.947l-48.218-33.719
		l19.986,28.62l-117.976-54.265C911.208,302.721,925.179,300.866,942.447,305.235z"/>
	<linearGradient id="SVGID_14_" gradientUnits="userSpaceOnUse" x1="843.1191" y1="122.0987" x2="1060.6083" y2="266.0916">
		<stop  offset="0" style="stop-color:#C9A73B"/>
		<stop  offset="1" style="stop-color:#694B28"/>
	</linearGradient>
	<path fill="url(#SVGID_14_)" d="M938.638,364.847l86.79,1.244l30.749,3.786l0.183-6.659c41.349,3.371,71.14,4.907,71.14,4.907
		l290.292-8.406v-43.326c-55.795,1.528-297.041,7.313-349.792-5.268c-59.75-14.25-147.5-15.625-175.75-17.625
		c-10.144-0.718-36.728-1.436-67.089-2.062l12.104,12.963L938.638,364.847z M1056.361,363.184l0.066-2.392l22.888,1.439
		L1056.361,363.184z M1354.15,339.84c5.674,0.681,50.85,11.292,53.851,12.03c3.001,0.738,7.49,2.553,7.49,2.553l-53.17,2.156
		l-31.721-18.499C1330.601,338.081,1348.476,339.16,1354.15,339.84z M1285.917,336.574c1.796,0.657,16.61,8.859,14.695,8.021
		c-1.915-0.838-36.513-9.248-36.513-9.248S1282.565,335.347,1285.917,336.574z M942.447,305.235
		c64.771,16.387,142.969,37.042,146.886,37.609c6.333,0.917,75.167,0.844,73-0.406c-2.167-1.25-32.833-12.229-32.833-12.229
		s25.833,3.106,36.833,5.222s80.5,16.737,91.167,19.403l-163.343,6.781L1033.5,341l19.812,18.557l-6.942,5.947l-48.218-33.719
		l19.986,28.62l-117.976-54.265C911.208,302.721,925.179,300.866,942.447,305.235z"/>
	<linearGradient id="SVGID_15_" gradientUnits="userSpaceOnUse" x1="22" y1="331.75" x2="1424" y2="331.75">
		<stop  offset="0" style="stop-color:#242B0C"/>
		<stop  offset="0.508" style="stop-color:#344827"/>
		<stop  offset="1" style="stop-color:#3D3215"/>
	</linearGradient>
	<path fill="url(#SVGID_15_)" d="M614,357l12.333-32.917l43,38.708l52.333-6.063l-17.606-15.361L789,374v-39.628L833.667,358H927
		l-137.765-67.236c-43.98-0.758-85.83-1.264-90.735-1.264c-3.296,0-9.907,0.629-17.213,1.461l-7.23,24.231l-23.27-20.302
		C650.29,294.959,650,295,650,295s-77.219,0-91.351,0l40.032,79L614,357z"/>
	<linearGradient id="SVGID_16_" gradientUnits="userSpaceOnUse" x1="740.9663" y1="268.8936" x2="744.9663" y2="392.8936">
		<stop  offset="0" style="stop-color:#C9A73B"/>
		<stop  offset="1" style="stop-color:#694B28"/>
	</linearGradient>
	<path fill="url(#SVGID_16_)" d="M614,357l12.333-32.917l43,38.708l52.333-6.063l-17.606-15.361L789,374v-39.628L833.667,358H927
		l-137.765-67.236c-43.98-0.758-85.83-1.264-90.735-1.264c-3.296,0-9.907,0.629-17.213,1.461l-7.23,24.231l-23.27-20.302
		C650.29,294.959,650,295,650,295s-77.219,0-91.351,0l40.032,79L614,357z"/>
	<linearGradient id="SVGID_17_" gradientUnits="userSpaceOnUse" x1="22" y1="335.7155" x2="1424" y2="335.7155">
		<stop  offset="0" style="stop-color:#242B0C"/>
		<stop  offset="0.508" style="stop-color:#344827"/>
		<stop  offset="1" style="stop-color:#3D3215"/>
	</linearGradient>
	<path fill="url(#SVGID_17_)" d="M44,327l47-2.354c-13.211,0.473-28.615,12.807-29.833,13.187c-2.667,0.833-13,2-19.167,2.812
		c-4.178,0.55-14.029,11.596-19.967,18.688h-9.368c3.577-4.479,10.692-13.408,10.563-13.408c-0.172,0-20.632,10.645-20.632,10.645
		l8.07,5.262v7.5h81.958c26.998,0.951,56.509,1.341,79.906,0h53.608L226,369.5l23.676,4l1.076-4.167h66.388l23.86,5.333l0.217-5.333
		h37.618v-10l-21.835,1.5l-0.479-15.912l-14.58,14.532l-53.699-0.12l3.89-25.571l-5.083,1.417l-12.077,24.155h-21.636l8.499-32.903
		l-27.376,32.903h-18.908c0.215-0.396,0.371-0.804,0.449-1.227c5.333-28.773,63.77-33.618,81.009-42.037l-3.259,11.18l43.25-3.604
		L359.333,340c0,0,33.514-9.628,36.09-10.481S387.333,359.333,385,361l13,4.333L414.275,357c0,0,27.706-33.333,41.716-38.333
		l5.59-2.4l-2.262-2.313l30.667-9.553l0.958,1.371l20.809-6.876l-0.277-2.132c-40.702,1.806-94.911,4.525-111.788,5.798
		c-26.5,2-83.813,7.261-94.813,7.261c-61.796,0-275.668,8.788-334.436,10.293l3.561,34.5L44,327z M108.601,350.08l1.274-5.224
		c0,0,5.844-2.597,10.625-3.712h0c0.278-0.065,0.553-0.125,0.823-0.178l56.677-12.3v17.718l34.934-20.885l-10.491,33.833H130.68
		l-0.82-1.465l-52.601-1.291c7.389-3.567,24.079-9.428,24.334-9.428C101.848,347.15,108.601,350.08,108.601,350.08z"/>
	<linearGradient id="SVGID_18_" gradientUnits="userSpaceOnUse" x1="642.6603" y1="258.2751" x2="-63.8043" y2="388.7686">
		<stop  offset="0" style="stop-color:#487876"/>
		<stop  offset="1" style="stop-color:#193D29"/>
	</linearGradient>
	<path fill="url(#SVGID_18_)" d="M44,327l47-2.354c-13.211,0.473-28.615,12.807-29.833,13.187c-2.667,0.833-13,2-19.167,2.812
		c-4.178,0.55-14.029,11.596-19.967,18.688h-9.368c3.577-4.479,10.692-13.408,10.563-13.408c-0.172,0-20.632,10.645-20.632,10.645
		l8.07,5.262v7.5h81.958c26.998,0.951,56.509,1.341,79.906,0h53.608L226,369.5l23.676,4l1.076-4.167h66.388l23.86,5.333l0.217-5.333
		h37.618v-10l-21.835,1.5l-0.479-15.912l-14.58,14.532l-53.699-0.12l3.89-25.571l-5.083,1.417l-12.077,24.155h-21.636l8.499-32.903
		l-27.376,32.903h-18.908c0.215-0.396,0.371-0.804,0.449-1.227c5.333-28.773,63.77-33.618,81.009-42.037l-3.259,11.18l43.25-3.604
		L359.333,340c0,0,33.514-9.628,36.09-10.481S387.333,359.333,385,361l13,4.333L414.275,357c0,0,27.706-33.333,41.716-38.333
		l5.59-2.4l-2.262-2.313l30.667-9.553l0.958,1.371l20.809-6.876l-0.277-2.132c-40.702,1.806-94.911,4.525-111.788,5.798
		c-26.5,2-83.813,7.261-94.813,7.261c-61.796,0-275.668,8.788-334.436,10.293l3.561,34.5L44,327z M108.601,350.08l1.274-5.224
		c0,0,5.844-2.597,10.625-3.712h0c0.278-0.065,0.553-0.125,0.823-0.178l56.677-12.3v17.718l34.934-20.885l-10.491,33.833H130.68
		l-0.82-1.465l-52.601-1.291c7.389-3.567,24.079-9.428,24.334-9.428C101.848,347.15,108.601,350.08,108.601,350.08z"/>
	<linearGradient id="SVGID_19_" gradientUnits="userSpaceOnUse" x1="22" y1="310.3341" x2="1424" y2="310.3341">
		<stop  offset="0" style="stop-color:#242B0C"/>
		<stop  offset="0.508" style="stop-color:#344827"/>
		<stop  offset="1" style="stop-color:#3D3215"/>
	</linearGradient>
	<polygon fill="url(#SVGID_19_)" points="490.943,305.773 489.986,304.401 459.319,313.954 461.581,316.267 469.592,312.828 	"/>
	<linearGradient id="SVGID_20_" gradientUnits="userSpaceOnUse" x1="474.0872" y1="277.5026" x2="478.0872" y2="401.5026">
		<stop  offset="0" style="stop-color:#C9A73B"/>
		<stop  offset="1" style="stop-color:#694B28"/>
	</linearGradient>
	<polygon fill="url(#SVGID_20_)" points="490.943,305.773 489.986,304.401 459.319,313.954 461.581,316.267 469.592,312.828 	"/>
	<linearGradient id="SVGID_21_" gradientUnits="userSpaceOnUse" x1="646.4532" y1="278.8091" x2="-60.0114" y2="409.3026">
		<stop  offset="0" style="stop-color:#487876"/>
		<stop  offset="1" style="stop-color:#193D29"/>
	</linearGradient>
	<polygon fill="url(#SVGID_21_)" points="490.943,305.773 489.986,304.401 459.319,313.954 461.581,316.267 469.592,312.828 	"/>
	<linearGradient id="SVGID_22_" gradientUnits="userSpaceOnUse" x1="22" y1="297.66" x2="1424" y2="297.66">
		<stop  offset="0" style="stop-color:#242B0C"/>
		<stop  offset="0.508" style="stop-color:#344827"/>
		<stop  offset="1" style="stop-color:#3D3215"/>
	</linearGradient>
	<path fill="url(#SVGID_22_)" d="M519.236,296.424c-2.521,0.109-5.111,0.223-7.761,0.341l0.277,2.132L519.236,296.424z"/>
	<linearGradient id="SVGID_23_" gradientUnits="userSpaceOnUse" x1="514.6978" y1="276.1925" x2="518.6978" y2="400.1925">
		<stop  offset="0" style="stop-color:#C9A73B"/>
		<stop  offset="1" style="stop-color:#694B28"/>
	</linearGradient>
	<path fill="url(#SVGID_23_)" d="M519.236,296.424c-2.521,0.109-5.111,0.223-7.761,0.341l0.277,2.132L519.236,296.424z"/>
	<linearGradient id="SVGID_24_" gradientUnits="userSpaceOnUse" x1="645.402" y1="273.1179" x2="-61.0627" y2="403.6114">
		<stop  offset="0" style="stop-color:#487876"/>
		<stop  offset="1" style="stop-color:#193D29"/>
	</linearGradient>
	<path fill="url(#SVGID_24_)" d="M519.236,296.424c-2.521,0.109-5.111,0.223-7.761,0.341l0.277,2.132L519.236,296.424z"/>
</g>
<linearGradient id="Water_1_" gradientUnits="userSpaceOnUse" x1="-59.85" y1="401.4625" x2="1470.5878" y2="401.4625">
	<stop  offset="0" style="stop-color:#056170"/>
	<stop  offset="0.5615" style="stop-color:#52A4B8"/>
	<stop  offset="1" style="stop-color:#056170"/>
</linearGradient>
<rect id="Water" x="-91.383" y="355.463" fill="url(#Water_1_)" width="1584" height="92"/>
</svg>
